<svg width="43" height="37" viewBox="0 0 43 37" fill="none" xmlns="http://www.w3.org/2000/svg">
<path d="M23.7745 26.125C23.6495 24.125 22.612 19.7875 20.212 19.1875" stroke="#8A9B6E" stroke-width="0.375"/>
<path d="M3.46399 9.56273C3.46399 9.56273 8.30871 17.7184 11.739 19.6988C15.1692 21.6793 18.2898 22.6961 20.2703 19.2659C22.2508 15.8356 20.5971 13.1217 17.1668 11.1412C13.7366 9.16079 3.46399 9.56273 3.46399 9.56273Z" fill="#567361"/>
<mask id="mask0_5241_531" style="mask-type:alpha" maskUnits="userSpaceOnUse" x="0" y="9" width="27" height="19">
<path d="M26.4692 22.8461L2.82897 9.1974L9.34216e-06 13.81L23.6403 27.4587L26.4692 22.8461Z" fill="#D9D9D9"/>
</mask>
<g mask="url(#mask0_5241_531)">
<path d="M3.37956 9.52798C3.37956 9.52798 8.23118 17.7505 11.6778 19.7404C15.1244 21.7303 18.2623 22.7479 20.266 19.2773C22.2697 15.8068 20.6134 13.0708 17.1668 11.0809C13.7202 9.09099 3.37956 9.52798 3.37956 9.52798Z" fill="#354733"/>
</g>
<path d="M25.0781 26.3125C25.1719 24.8125 25.95 21.5594 27.75 21.1094" stroke="#8A9B6E" stroke-width="0.28125"/>
<path d="M40.311 13.8908C40.311 13.8908 36.6775 20.0075 34.1048 21.4929C31.5321 22.9782 29.1916 23.7408 27.7063 21.1681C26.2209 18.5954 27.4612 16.56 30.0339 15.0747C32.6066 13.5893 40.311 13.8908 40.311 13.8908Z" fill="#587462"/>
<mask id="mask1_5241_531" style="mask-type:alpha" maskUnits="userSpaceOnUse" x="23" y="13" width="20" height="15">
<path d="M23.0571 23.8533L40.7873 13.6168L42.909 17.0762L25.1788 27.3128L23.0571 23.8533Z" fill="#D9D9D9"/>
</mask>
<g mask="url(#mask1_5241_531)">
<path d="M40.3743 13.8647C40.3743 13.8647 36.7356 20.0316 34.1507 21.524C31.5657 23.0165 29.2123 23.7796 27.7095 21.1767C26.2067 18.5738 27.4489 16.5218 30.0339 15.0294C32.6188 13.537 40.3743 13.8647 40.3743 13.8647Z" fill="#354733"/>
</g>
<path d="M24.5 25.875C24.375 23.875 24.5 15.125 24.5 15.125" stroke="#8A9B6E" stroke-width="0.375"/>
<path d="M24.6133 1.0322C24.6133 1.0322 28.0937 7.2373 28.0937 10.208C28.0937 13.1787 27.584 15.5869 24.6133 15.5869C21.6426 15.5869 20.5 13.4951 20.5 10.5244C20.5 7.5537 24.6133 1.0322 24.6133 1.0322Z" fill="#8A9B6E"/>
<mask id="mask2_5241_531" style="mask-type:alpha" maskUnits="userSpaceOnUse" x="24" y="0" width="5" height="21">
<path d="M24.6141 20.9558L24.6141 0.482752L28.6709 0.37501L28.6709 20.8481L24.6141 20.9558Z" fill="#D9D9D9"/>
</mask>
<g mask="url(#mask2_5241_531)">
<path d="M24.6224 0.964338C24.6224 0.964338 28.1437 7.199 28.1437 10.1838C28.1437 13.1687 27.6279 15.5884 24.6224 15.5884C21.6168 15.5884 20.4608 13.4866 20.4608 10.5018C20.4608 7.51692 24.6224 0.964338 24.6224 0.964338Z" fill="#354733"/>
</g>
<rect x="16.875" y="25.75" width="15" height="3.75" fill="#D54B01"/>
<rect x="16.875" y="35.875" width="15" height="0.75" fill="#D54B01"/>
<path d="M18.375 29.5H30.375L30 32.125H18.75L18.375 29.5Z" fill="#4C210D"/>
<path d="M19.125 32.125H29.625L29.4277 33.625H19.3559L19.125 32.125Z" fill="#D54B01"/>
<path d="M19.5 33.625H29.25L28.9453 35.875H19.8047L19.5 33.625Z" fill="#50210B"/>
</svg>
